<svg width="553" height="206" viewBox="0 0 553 206" fill="none" xmlns="http://www.w3.org/2000/svg">
<g clip-path="url(#clip0_35459_8388)">
<path d="M311.7 66.2996L285.4 67.9996C286.1 76.9996 289.6 84.3996 295.5 90.2996C301.4 96.1996 311.9 99.0996 327.1 99.0996C335.7 99.0996 342.9 97.7996 348.6 95.2996C353.737 93.1115 358.151 89.5657 361.409 85.0067C360.285 76.3564 361.494 67.1992 364.839 58.3608C364.376 57.2385 363.829 56.1484 363.2 55.0996C360.9 51.1996 357.1 47.8996 351.8 45.1996C346.5 42.4996 337.9 39.8996 325.8 37.2996C320.9 36.2996 317.8 35.1996 316.5 33.9996C315.3 33.0996 314.5 31.6996 314.5 30.1996C314.4 28.1996 315.4 26.3996 316.9 25.1996C318.5 23.8996 320.9 23.1996 324.1 23.1996C328 23.1996 331 24.0996 333.3 25.9996C335.6 27.8996 337 30.7996 337.7 34.7996L363.7 33.2996C362.6 23.9996 359 17.1996 353 12.9996C347 8.69961 338.3 6.59961 326.9 6.59961C317.6 6.59961 310.2 7.79961 304.9 10.0996C300 11.9996 295.9 15.3996 292.9 19.6996C290.3 23.4996 288.9 28.0996 288.9 32.6996C288.7 39.3996 291.6 45.6996 296.7 49.9996C301.8 54.5996 310.5 58.1996 322.6 60.8996C330 62.4996 334.7 64.2996 336.7 66.0996C338.6 67.5996 339.7 69.8996 339.7 72.2996C339.7 74.7996 338.5 77.1996 336.5 78.6996C334.4 80.5996 331.3 81.4996 327.4 81.4996C322.1 81.4996 318.1 79.6996 315.2 76.0996C313.4 73.7996 312.3 70.5996 311.7 66.2996Z" fill="#4B2206"/>
<path fill-rule="evenodd" clip-rule="evenodd" d="M405.418 124.112C418.656 124.955 433.05 121.344 446.031 113.17C457.329 114.327 466.304 118.204 472.9 124.8C476.933 128.833 479.975 133.679 482 139.339V114.4H509.7V181.8H552.8V203.8H482V178.747C481.34 180.645 480.573 182.429 479.7 184.1C476.3 190.7 471 196.1 464.5 199.7C457.8 203.4 449.5 205.3 439.6 205.3C429.5 205.3 421.2 203.7 414.6 200.5C407.8 197.1 402.2 191.8 398.5 185.3C394.4 178.3 392.3 169.6 392.3 159.1C392.3 144.5 396.4 133.1 404.5 125C404.801 124.698 405.107 124.402 405.418 124.112ZM424.9 178.7C421.6 174.7 419.9 168.2 419.9 159.2C419.9 150.1 421.6 143.6 425 139.7C428.3 135.8 433.3 133.6 438.4 133.8C444.2 133.8 448.8 135.7 452.2 139.6C455.6 143.4 457.3 149.6 457.3 158C457.3 168 455.7 174.9 452.4 178.8C449.1 182.7 444.5 184.6 438.6 184.6C432.8 184.6 428.2 182.6 424.9 178.7Z" fill="#4B2206"/>
<path fill-rule="evenodd" clip-rule="evenodd" d="M6.3 8.19961V97.4996H34V61.1996H36.4C38.8 61.1996 41.2 61.8996 43.2 63.2996C44.7 64.3996 46.3 66.6996 48.2 70.1996L63 97.6996H94.4L81 71.7996C79.9 69.7996 78.6 67.8996 77.1 66.1996C75.8 64.4996 74.4 62.8996 72.7 61.4996C70.5 60.0996 68 58.8996 65.5 58.1996C68.9 57.5996 72.2 56.3996 75.2 54.6996C82.9 50.2996 87.4 41.8996 87.1 33.0996C87.2 27.8996 85.8 22.8996 82.9 18.5996C80.3 14.6996 76.4 11.7996 72 10.3996C67.5 8.89961 60.9 8.19961 52.4 8.19961H6.3ZM45.7 44.3996H34V26.2996H46.2C51.2 26.2996 54.7 27.0996 56.5 28.5996C59.8 31.6996 60.2 36.7996 57.5 40.3996C56.4 41.8996 54.8 42.8996 53 43.1996C50.6 43.7996 48.2 44.1996 45.7 44.3996Z" fill="#4B2206"/>
<path fill-rule="evenodd" clip-rule="evenodd" d="M0 174.2L26.3 172.5C26.9 176.8 28 180 29.8 182.3C32.6 185.9 36.7 187.8 42 187.8C45.9 187.8 49 186.9 51.1 185C53.1 183.4 54.3 181.1 54.3 178.6C54.3 176.2 53.2 173.9 51.3 172.4C49.3 170.6 44.6 168.8 37.1 167.2C25 164.5 16.3 160.9 11.2 156.3C6.1 152 3.2 145.7 3.4 139C3.4 134.4 4.8 129.8 7.4 126C10.4 121.7 14.5 118.3 19.4 116.4C24.7 114.1 32.1 112.9 41.4 112.9C52.8 112.9 61.5 115 67.5 119.3C71.7102 122.317 74.6895 126.516 76.4723 131.966C78.0244 129.323 79.8664 126.934 82.0002 124.8C89.9002 116.9 101 112.9 115.4 112.9C126.7 112.9 135.5 115.2 142 119.7C148.4 124.3 153.2 131.3 156.4 140.7L132 146.1C131.4 144 130.5 141.9 129.3 140.1C127.8 138 125.9 136.4 123.6 135.2C121.3 134 118.7 133.5 116.1 133.5C109.8 133.5 105 136 101.7 141.1C99.2002 144.8 97.9002 150.7 97.9002 158.7C97.9002 168.6 99.4002 175.4 102.4 179.1C105.4 182.8 109.6 184.6 115.1 184.6C120.4 184.6 124.4 183.1 127.1 180.2C129.8 177.1 131.8 172.8 133 167.2L157.2 174.5C155.9 180.6 153.2 186.4 149.5 191.5C146.1 196 141.6 199.5 136.5 201.8C131.3 204.1 124.7 205.3 116.7 205.3C107 205.3 99.0002 203.9 92.9002 201.1C87.1974 198.525 82.2561 194.088 77.9983 187.868C77.5164 188.804 76.9829 189.716 76.4 190.6C73.1 195.5 68.5 199.3 63.1 201.6C57.4 204.1 50.2 205.4 41.6 205.4C26.4 205.4 15.9 202.5 10 196.6C4.1 190.6 0.8 183.2 0 174.2ZM52.1 141.1L72.9238 139.898C71.5202 144.171 70.6613 148.919 70.342 154.138C69.0817 153.277 67.701 152.464 66.2 151.7C60.9 149 52.3 146.4 40.2 143.8C35.3 142.8 32.2 141.7 30.9 140.5C29.7 139.6 28.9 138.2 28.9 136.7C28.8 134.7 29.7 132.9 31.3 131.7C32.9 130.3 35.3 129.6 38.5 129.6C42.4 129.5 45.5 130.4 47.7 132.3C50 134.2 51.4 137.1 52.1 141.1Z" fill="#4B2206"/>
<path fill-rule="evenodd" clip-rule="evenodd" d="M217.1 114.4H189.5V203.8H217.1V167.6H247.3V203.8H275.1V180.468C275.804 182.16 276.604 183.771 277.5 185.3C281.2 191.8 286.8 197.1 293.6 200.5C300.2 203.7 308.5 205.3 318.6 205.3C328.5 205.3 336.8 203.4 343.5 199.7C350 196.1 355.3 190.7 358.7 184.1C362.2 177.4 364 168.9 364 158.4C364 144 360 132.8 351.9 124.8C343.8 116.8 332.4 112.8 317.5 112.8C303 112.8 291.6 116.9 283.5 125C279.912 128.587 277.11 132.822 275.1 137.695V114.4H247.3V145.7H217.1V114.4ZM298.9 159.2C298.9 168.2 300.6 174.7 303.9 178.7C307.2 182.6 311.8 184.6 317.6 184.6C323.5 184.6 328.1 182.7 331.4 178.8C334.7 174.9 336.3 168 336.3 158C336.3 149.6 334.6 143.4 331.2 139.6C327.8 135.7 323.2 133.8 317.4 133.8C312.3 133.6 307.4 135.8 304 139.7C300.6 143.6 298.9 150.1 298.9 159.2Z" fill="#4B2206"/>
<path fill-rule="evenodd" clip-rule="evenodd" d="M468.606 31.5516C485.209 53.5844 476.946 87.8154 450.149 108.009C423.353 128.202 388.17 126.711 371.567 104.678C354.963 82.6457 363.226 48.4146 390.023 28.2212C416.82 8.02778 452.002 9.51886 468.606 31.5516ZM402.4 54.3L392.4 61.3L406.4 81C407.5 82.3 408.2 84 408.5 85.7C408.6 86.9 407.9 88.1 406.9 88.7C406.4 89.1 405.7 89.4 405 89.4C404.1 89.4 403.3 89.1 402.6 88.6C401.6 87.8 400.7 86.8 400 85.7L391.4 93.7C393 95.9 395.1 97.6 397.5 98.8C399.7 99.8 402.1 100.2 404.4 99.8C406.8 99.4 409.6 98.1 412.9 95.8C415.7 94 417.8 91.5 419.1 88.5C420.1 86.1 420.3 83.4 419.6 80.9C418.4 77.6 416.8 74.6 414.7 71.8L402.4 54.3ZM431.5 65.2L422.4 72.4C424.7 75.3 427.9 77.3 431.8 77.9C435.4 78.5 439.9 76.9 445.4 73.1C448.1 71.3 450.4 69 452.2 66.3C453.6 64.1 454.3 61.6 454.2 59C454.1 56.5 453.3 54.1 451.9 52.1C450.8 50.4 449.2 49 447.3 48.2C445.2 47.3 442.9 47.1 440.7 47.5C438.1 47.9 434.3 49.1 429.3 51.2C427.3 52.1 425.9 52.5 425.1 52.4C424.4 52.4 423.8 52 423.4 51.5C422.9 50.8 422.7 49.9 423 49.1C423.4 48 424.1 47.1 425.1 46.5L425.4 46.2C427.7 44.4 431.1 44.9 432.9 47.2L441.9 40.1C439.1 37 436.1 35.5 432.9 35.5C429.7 35.5 426 36.9 421.8 39.8C419 41.6 416.7 43.9 414.8 46.6C413.5 48.5 412.9 50.8 412.9 53.1C413 55.1 413.6 57.1 414.8 58.8C416.4 61.3 419.1 62.8 422 63.1C425 63.4 429 62.6 434.1 60.5C437.2 59.2 439.3 58.7 440.5 58.8C440.8 58.8 441.1 58.9 441.4 59C443.2 59.6 444.2 61.6 443.6 63.4C443.2 64.8 442.2 65.9 441 66.7C439.3 68 437.2 68.4 435.2 67.8C433.8 67.3 432.5 66.4 431.5 65.2Z" fill="#4B2206"/>
</g>
<defs>
<clipPath id="clip0_35459_8388">
<rect width="552.8" height="205.3" fill="white"/>
</clipPath>
</defs>
</svg>
